<?xml version="1.0" encoding="utf-8" standalone="no"?>
<!DOCTYPE svg PUBLIC "-//W3C//DTD SVG 1.1//EN"
  "http://www.w3.org/Graphics/SVG/1.1/DTD/svg11.dtd">
<!-- Created with matplotlib (http://matplotlib.org/) -->
<svg height="288pt" version="1.1" viewBox="0 0 432 288" width="432pt" xmlns="http://www.w3.org/2000/svg" xmlns:xlink="http://www.w3.org/1999/xlink">
 <defs>
  <style type="text/css">
*{stroke-linecap:butt;stroke-linejoin:round;}
  </style>
 </defs>
 <g id="figure_1">
  <g id="patch_1">
   <path d="M 0 288 
L 432 288 
L 432 0 
L 0 0 
z
" style="fill:#ffffff;"/>
  </g>
  <g id="axes_1">
   <g id="patch_2">
    <path d="M 41.794461 253.933354 
L 424.301348 253.933354 
L 424.301348 17.114646 
L 41.794461 17.114646 
z
" style="fill:#ffffff;"/>
   </g>
   <g id="matplotlib.axis_1">
    <g id="xtick_1">
     <g id="line2d_1">
      <path clip-path="url(#pf2bfd4522c)" d="M 41.794461 253.933354 
L 41.794461 17.114646 
" style="fill:none;stroke:#000000;stroke-linecap:square;stroke-width:0.8;"/>
     </g>
     <g id="line2d_2">
      <defs>
       <path d="M 0 0 
L 0 3.5 
" id="mddefba542a" style="stroke:#000000;stroke-width:0.8;"/>
      </defs>
      <g>
       <use style="stroke:#000000;stroke-width:0.8;" x="41.794461" xlink:href="#mddefba542a" y="253.933354"/>
      </g>
     </g>
     <g id="text_1">
      <!-- $10^{1}$ -->
      <defs>
       <path d="M 12.40625 8.296875 
L 28.515625 8.296875 
L 28.515625 63.921875 
L 10.984375 60.40625 
L 10.984375 69.390625 
L 28.421875 72.90625 
L 38.28125 72.90625 
L 38.28125 8.296875 
L 54.390625 8.296875 
L 54.390625 0 
L 12.40625 0 
z
" id="DejaVuSans-31"/>
       <path d="M 31.78125 66.40625 
Q 24.171875 66.40625 20.328125 58.90625 
Q 16.5 51.421875 16.5 36.375 
Q 16.5 21.390625 20.328125 13.890625 
Q 24.171875 6.390625 31.78125 6.390625 
Q 39.453125 6.390625 43.28125 13.890625 
Q 47.125 21.390625 47.125 36.375 
Q 47.125 51.421875 43.28125 58.90625 
Q 39.453125 66.40625 31.78125 66.40625 
M 31.78125 74.21875 
Q 44.046875 74.21875 50.515625 64.515625 
Q 56.984375 54.828125 56.984375 36.375 
Q 56.984375 17.96875 50.515625 8.265625 
Q 44.046875 -1.421875 31.78125 -1.421875 
Q 19.53125 -1.421875 13.0625 8.265625 
Q 6.59375 17.96875 6.59375 36.375 
Q 6.59375 54.828125 13.0625 64.515625 
Q 19.53125 74.21875 31.78125 74.21875 
" id="DejaVuSans-30"/>
      </defs>
      <g transform="translate(34.754461 267.012104)scale(0.08 -0.08)">
       <use transform="translate(0 0.684375)" xlink:href="#DejaVuSans-31"/>
       <use transform="translate(63.623047 0.684375)" xlink:href="#DejaVuSans-30"/>
       <use transform="translate(128.203125 38.965625)scale(0.7)" xlink:href="#DejaVuSans-31"/>
      </g>
     </g>
    </g>
    <g id="xtick_2">
     <g id="line2d_3">
      <path clip-path="url(#pf2bfd4522c)" d="M 105.545608 253.933354 
L 105.545608 17.114646 
" style="fill:none;stroke:#000000;stroke-linecap:square;stroke-width:0.8;"/>
     </g>
     <g id="line2d_4">
      <g>
       <use style="stroke:#000000;stroke-width:0.8;" x="105.545608" xlink:href="#mddefba542a" y="253.933354"/>
      </g>
     </g>
     <g id="text_2">
      <!-- $10^{2}$ -->
      <defs>
       <path d="M 19.1875 8.296875 
L 53.609375 8.296875 
L 53.609375 0 
L 7.328125 0 
L 7.328125 8.296875 
Q 12.9375 14.109375 22.625 23.890625 
Q 32.328125 33.6875 34.8125 36.53125 
Q 39.546875 41.84375 41.421875 45.53125 
Q 43.3125 49.21875 43.3125 52.78125 
Q 43.3125 58.59375 39.234375 62.25 
Q 35.15625 65.921875 28.609375 65.921875 
Q 23.96875 65.921875 18.8125 64.3125 
Q 13.671875 62.703125 7.8125 59.421875 
L 7.8125 69.390625 
Q 13.765625 71.78125 18.9375 73 
Q 24.125 74.21875 28.421875 74.21875 
Q 39.75 74.21875 46.484375 68.546875 
Q 53.21875 62.890625 53.21875 53.421875 
Q 53.21875 48.921875 51.53125 44.890625 
Q 49.859375 40.875 45.40625 35.40625 
Q 44.1875 33.984375 37.640625 27.21875 
Q 31.109375 20.453125 19.1875 8.296875 
" id="DejaVuSans-32"/>
      </defs>
      <g transform="translate(98.505608 267.012104)scale(0.08 -0.08)">
       <use transform="translate(0 0.765625)" xlink:href="#DejaVuSans-31"/>
       <use transform="translate(63.623047 0.765625)" xlink:href="#DejaVuSans-30"/>
       <use transform="translate(128.203125 39.046875)scale(0.7)" xlink:href="#DejaVuSans-32"/>
      </g>
     </g>
    </g>
    <g id="xtick_3">
     <g id="line2d_5">
      <path clip-path="url(#pf2bfd4522c)" d="M 169.296756 253.933354 
L 169.296756 17.114646 
" style="fill:none;stroke:#000000;stroke-linecap:square;stroke-width:0.8;"/>
     </g>
     <g id="line2d_6">
      <g>
       <use style="stroke:#000000;stroke-width:0.8;" x="169.296756" xlink:href="#mddefba542a" y="253.933354"/>
      </g>
     </g>
     <g id="text_3">
      <!-- $10^{3}$ -->
      <defs>
       <path d="M 40.578125 39.3125 
Q 47.65625 37.796875 51.625 33 
Q 55.609375 28.21875 55.609375 21.1875 
Q 55.609375 10.40625 48.1875 4.484375 
Q 40.765625 -1.421875 27.09375 -1.421875 
Q 22.515625 -1.421875 17.65625 -0.515625 
Q 12.796875 0.390625 7.625 2.203125 
L 7.625 11.71875 
Q 11.71875 9.328125 16.59375 8.109375 
Q 21.484375 6.890625 26.8125 6.890625 
Q 36.078125 6.890625 40.9375 10.546875 
Q 45.796875 14.203125 45.796875 21.1875 
Q 45.796875 27.640625 41.28125 31.265625 
Q 36.765625 34.90625 28.71875 34.90625 
L 20.21875 34.90625 
L 20.21875 43.015625 
L 29.109375 43.015625 
Q 36.375 43.015625 40.234375 45.921875 
Q 44.09375 48.828125 44.09375 54.296875 
Q 44.09375 59.90625 40.109375 62.90625 
Q 36.140625 65.921875 28.71875 65.921875 
Q 24.65625 65.921875 20.015625 65.03125 
Q 15.375 64.15625 9.8125 62.3125 
L 9.8125 71.09375 
Q 15.4375 72.65625 20.34375 73.4375 
Q 25.25 74.21875 29.59375 74.21875 
Q 40.828125 74.21875 47.359375 69.109375 
Q 53.90625 64.015625 53.90625 55.328125 
Q 53.90625 49.265625 50.4375 45.09375 
Q 46.96875 40.921875 40.578125 39.3125 
" id="DejaVuSans-33"/>
      </defs>
      <g transform="translate(162.256756 267.012104)scale(0.08 -0.08)">
       <use transform="translate(0 0.765625)" xlink:href="#DejaVuSans-31"/>
       <use transform="translate(63.623047 0.765625)" xlink:href="#DejaVuSans-30"/>
       <use transform="translate(128.203125 39.046875)scale(0.7)" xlink:href="#DejaVuSans-33"/>
      </g>
     </g>
    </g>
    <g id="xtick_4">
     <g id="line2d_7">
      <path clip-path="url(#pf2bfd4522c)" d="M 233.047904 253.933354 
L 233.047904 17.114646 
" style="fill:none;stroke:#000000;stroke-linecap:square;stroke-width:0.8;"/>
     </g>
     <g id="line2d_8">
      <g>
       <use style="stroke:#000000;stroke-width:0.8;" x="233.047904" xlink:href="#mddefba542a" y="253.933354"/>
      </g>
     </g>
     <g id="text_4">
      <!-- $10^{4}$ -->
      <defs>
       <path d="M 37.796875 64.3125 
L 12.890625 25.390625 
L 37.796875 25.390625 
z
M 35.203125 72.90625 
L 47.609375 72.90625 
L 47.609375 25.390625 
L 58.015625 25.390625 
L 58.015625 17.1875 
L 47.609375 17.1875 
L 47.609375 0 
L 37.796875 0 
L 37.796875 17.1875 
L 4.890625 17.1875 
L 4.890625 26.703125 
z
" id="DejaVuSans-34"/>
      </defs>
      <g transform="translate(226.007904 267.012104)scale(0.08 -0.08)">
       <use transform="translate(0 0.684375)" xlink:href="#DejaVuSans-31"/>
       <use transform="translate(63.623047 0.684375)" xlink:href="#DejaVuSans-30"/>
       <use transform="translate(128.203125 38.965625)scale(0.7)" xlink:href="#DejaVuSans-34"/>
      </g>
     </g>
    </g>
    <g id="xtick_5">
     <g id="line2d_9">
      <path clip-path="url(#pf2bfd4522c)" d="M 296.799052 253.933354 
L 296.799052 17.114646 
" style="fill:none;stroke:#000000;stroke-linecap:square;stroke-width:0.8;"/>
     </g>
     <g id="line2d_10">
      <g>
       <use style="stroke:#000000;stroke-width:0.8;" x="296.799052" xlink:href="#mddefba542a" y="253.933354"/>
      </g>
     </g>
     <g id="text_5">
      <!-- $10^{5}$ -->
      <defs>
       <path d="M 10.796875 72.90625 
L 49.515625 72.90625 
L 49.515625 64.59375 
L 19.828125 64.59375 
L 19.828125 46.734375 
Q 21.96875 47.46875 24.109375 47.828125 
Q 26.265625 48.1875 28.421875 48.1875 
Q 40.625 48.1875 47.75 41.5 
Q 54.890625 34.8125 54.890625 23.390625 
Q 54.890625 11.625 47.5625 5.09375 
Q 40.234375 -1.421875 26.90625 -1.421875 
Q 22.3125 -1.421875 17.546875 -0.640625 
Q 12.796875 0.140625 7.71875 1.703125 
L 7.71875 11.625 
Q 12.109375 9.234375 16.796875 8.0625 
Q 21.484375 6.890625 26.703125 6.890625 
Q 35.15625 6.890625 40.078125 11.328125 
Q 45.015625 15.765625 45.015625 23.390625 
Q 45.015625 31 40.078125 35.4375 
Q 35.15625 39.890625 26.703125 39.890625 
Q 22.75 39.890625 18.8125 39.015625 
Q 14.890625 38.140625 10.796875 36.28125 
z
" id="DejaVuSans-35"/>
      </defs>
      <g transform="translate(289.759052 267.012104)scale(0.08 -0.08)">
       <use transform="translate(0 0.684375)" xlink:href="#DejaVuSans-31"/>
       <use transform="translate(63.623047 0.684375)" xlink:href="#DejaVuSans-30"/>
       <use transform="translate(128.203125 38.965625)scale(0.7)" xlink:href="#DejaVuSans-35"/>
      </g>
     </g>
    </g>
    <g id="xtick_6">
     <g id="line2d_11">
      <path clip-path="url(#pf2bfd4522c)" d="M 360.5502 253.933354 
L 360.5502 17.114646 
" style="fill:none;stroke:#000000;stroke-linecap:square;stroke-width:0.8;"/>
     </g>
     <g id="line2d_12">
      <g>
       <use style="stroke:#000000;stroke-width:0.8;" x="360.5502" xlink:href="#mddefba542a" y="253.933354"/>
      </g>
     </g>
     <g id="text_6">
      <!-- $10^{6}$ -->
      <defs>
       <path d="M 33.015625 40.375 
Q 26.375 40.375 22.484375 35.828125 
Q 18.609375 31.296875 18.609375 23.390625 
Q 18.609375 15.53125 22.484375 10.953125 
Q 26.375 6.390625 33.015625 6.390625 
Q 39.65625 6.390625 43.53125 10.953125 
Q 47.40625 15.53125 47.40625 23.390625 
Q 47.40625 31.296875 43.53125 35.828125 
Q 39.65625 40.375 33.015625 40.375 
M 52.59375 71.296875 
L 52.59375 62.3125 
Q 48.875 64.0625 45.09375 64.984375 
Q 41.3125 65.921875 37.59375 65.921875 
Q 27.828125 65.921875 22.671875 59.328125 
Q 17.53125 52.734375 16.796875 39.40625 
Q 19.671875 43.65625 24.015625 45.921875 
Q 28.375 48.1875 33.59375 48.1875 
Q 44.578125 48.1875 50.953125 41.515625 
Q 57.328125 34.859375 57.328125 23.390625 
Q 57.328125 12.15625 50.6875 5.359375 
Q 44.046875 -1.421875 33.015625 -1.421875 
Q 20.359375 -1.421875 13.671875 8.265625 
Q 6.984375 17.96875 6.984375 36.375 
Q 6.984375 53.65625 15.1875 63.9375 
Q 23.390625 74.21875 37.203125 74.21875 
Q 40.921875 74.21875 44.703125 73.484375 
Q 48.484375 72.75 52.59375 71.296875 
" id="DejaVuSans-36"/>
      </defs>
      <g transform="translate(353.5102 267.012104)scale(0.08 -0.08)">
       <use transform="translate(0 0.765625)" xlink:href="#DejaVuSans-31"/>
       <use transform="translate(63.623047 0.765625)" xlink:href="#DejaVuSans-30"/>
       <use transform="translate(128.203125 39.046875)scale(0.7)" xlink:href="#DejaVuSans-36"/>
      </g>
     </g>
    </g>
    <g id="xtick_7">
     <g id="line2d_13">
      <path clip-path="url(#pf2bfd4522c)" d="M 424.301348 253.933354 
L 424.301348 17.114646 
" style="fill:none;stroke:#000000;stroke-linecap:square;stroke-width:0.8;"/>
     </g>
     <g id="line2d_14">
      <g>
       <use style="stroke:#000000;stroke-width:0.8;" x="424.301348" xlink:href="#mddefba542a" y="253.933354"/>
      </g>
     </g>
     <g id="text_7">
      <!-- $10^{7}$ -->
      <defs>
       <path d="M 8.203125 72.90625 
L 55.078125 72.90625 
L 55.078125 68.703125 
L 28.609375 0 
L 18.3125 0 
L 43.21875 64.59375 
L 8.203125 64.59375 
z
" id="DejaVuSans-37"/>
      </defs>
      <g transform="translate(417.261348 267.012104)scale(0.08 -0.08)">
       <use transform="translate(0 0.684375)" xlink:href="#DejaVuSans-31"/>
       <use transform="translate(63.623047 0.684375)" xlink:href="#DejaVuSans-30"/>
       <use transform="translate(128.203125 38.965625)scale(0.7)" xlink:href="#DejaVuSans-37"/>
      </g>
     </g>
    </g>
    <g id="xtick_8">
     <g id="line2d_15">
      <defs>
       <path d="M 0 0 
L 0 2 
" id="me665a19e2e" style="stroke:#000000;stroke-width:0.6;"/>
      </defs>
      <g>
       <use style="stroke:#000000;stroke-width:0.6;" x="41.794461" xlink:href="#me665a19e2e" y="253.933354"/>
      </g>
     </g>
    </g>
    <g id="xtick_9">
     <g id="line2d_16">
      <g>
       <use style="stroke:#000000;stroke-width:0.6;" x="105.545608" xlink:href="#me665a19e2e" y="253.933354"/>
      </g>
     </g>
    </g>
    <g id="xtick_10">
     <g id="line2d_17">
      <g>
       <use style="stroke:#000000;stroke-width:0.6;" x="169.296756" xlink:href="#me665a19e2e" y="253.933354"/>
      </g>
     </g>
    </g>
    <g id="xtick_11">
     <g id="line2d_18">
      <g>
       <use style="stroke:#000000;stroke-width:0.6;" x="233.047904" xlink:href="#me665a19e2e" y="253.933354"/>
      </g>
     </g>
    </g>
    <g id="xtick_12">
     <g id="line2d_19">
      <g>
       <use style="stroke:#000000;stroke-width:0.6;" x="296.799052" xlink:href="#me665a19e2e" y="253.933354"/>
      </g>
     </g>
    </g>
    <g id="xtick_13">
     <g id="line2d_20">
      <g>
       <use style="stroke:#000000;stroke-width:0.6;" x="360.5502" xlink:href="#me665a19e2e" y="253.933354"/>
      </g>
     </g>
    </g>
    <g id="xtick_14">
     <g id="line2d_21">
      <g>
       <use style="stroke:#000000;stroke-width:0.6;" x="424.301348" xlink:href="#me665a19e2e" y="253.933354"/>
      </g>
     </g>
    </g>
    <g id="text_8">
     <!-- N -->
     <defs>
      <path d="M 9.8125 72.90625 
L 23.09375 72.90625 
L 55.421875 11.921875 
L 55.421875 72.90625 
L 64.984375 72.90625 
L 64.984375 0 
L 51.703125 0 
L 19.390625 60.984375 
L 19.390625 0 
L 9.8125 0 
z
" id="DejaVuSans-4e"/>
     </defs>
     <g transform="translate(228.933217 281.034136)scale(0.11 -0.11)">
      <use xlink:href="#DejaVuSans-4e"/>
     </g>
    </g>
   </g>
   <g id="matplotlib.axis_2">
    <g id="ytick_1">
     <g id="line2d_22">
      <path clip-path="url(#pf2bfd4522c)" d="M 41.794461 177.754159 
L 424.301348 177.754159 
" style="fill:none;stroke:#000000;stroke-linecap:square;stroke-width:0.8;"/>
     </g>
     <g id="line2d_23">
      <defs>
       <path d="M 0 0 
L -3.5 0 
" id="mf220b52da0" style="stroke:#000000;stroke-width:0.8;"/>
      </defs>
      <g>
       <use style="stroke:#000000;stroke-width:0.8;" x="41.794461" xlink:href="#mf220b52da0" y="177.754159"/>
      </g>
     </g>
     <g id="text_9">
      <!-- $10^{-4}$ -->
      <defs>
       <path d="M 10.59375 35.5 
L 73.1875 35.5 
L 73.1875 27.203125 
L 10.59375 27.203125 
z
" id="DejaVuSans-2212"/>
      </defs>
      <g transform="translate(15.994461 180.793534)scale(0.08 -0.08)">
       <use transform="translate(0 0.684375)" xlink:href="#DejaVuSans-31"/>
       <use transform="translate(63.623047 0.684375)" xlink:href="#DejaVuSans-30"/>
       <use transform="translate(128.203125 38.965625)scale(0.7)" xlink:href="#DejaVuSans-2212"/>
       <use transform="translate(186.855469 38.965625)scale(0.7)" xlink:href="#DejaVuSans-34"/>
      </g>
     </g>
    </g>
    <g id="ytick_2">
     <g id="line2d_24">
      <path clip-path="url(#pf2bfd4522c)" d="M 41.794461 97.507715 
L 424.301348 97.507715 
" style="fill:none;stroke:#000000;stroke-linecap:square;stroke-width:0.8;"/>
     </g>
     <g id="line2d_25">
      <g>
       <use style="stroke:#000000;stroke-width:0.8;" x="41.794461" xlink:href="#mf220b52da0" y="97.507715"/>
      </g>
     </g>
     <g id="text_10">
      <!-- $10^{-2}$ -->
      <g transform="translate(15.994461 100.54709)scale(0.08 -0.08)">
       <use transform="translate(0 0.765625)" xlink:href="#DejaVuSans-31"/>
       <use transform="translate(63.623047 0.765625)" xlink:href="#DejaVuSans-30"/>
       <use transform="translate(128.203125 39.046875)scale(0.7)" xlink:href="#DejaVuSans-2212"/>
       <use transform="translate(186.855469 39.046875)scale(0.7)" xlink:href="#DejaVuSans-32"/>
      </g>
     </g>
    </g>
    <g id="ytick_3">
     <g id="line2d_26">
      <path clip-path="url(#pf2bfd4522c)" d="M 41.794461 17.261271 
L 424.301348 17.261271 
" style="fill:none;stroke:#000000;stroke-linecap:square;stroke-width:0.8;"/>
     </g>
     <g id="line2d_27">
      <g>
       <use style="stroke:#000000;stroke-width:0.8;" x="41.794461" xlink:href="#mf220b52da0" y="17.261271"/>
      </g>
     </g>
     <g id="text_11">
      <!-- $10^{0}$ -->
      <g transform="translate(20.714461 20.300646)scale(0.08 -0.08)">
       <use transform="translate(0 0.765625)" xlink:href="#DejaVuSans-31"/>
       <use transform="translate(63.623047 0.765625)" xlink:href="#DejaVuSans-30"/>
       <use transform="translate(128.203125 39.046875)scale(0.7)" xlink:href="#DejaVuSans-30"/>
      </g>
     </g>
    </g>
    <g id="ytick_4">
     <g id="line2d_28">
      <defs>
       <path d="M 0 0 
L -2 0 
" id="mc276ef52e7" style="stroke:#000000;stroke-width:0.6;"/>
      </defs>
      <g>
       <use style="stroke:#000000;stroke-width:0.6;" x="41.794461" xlink:href="#mc276ef52e7" y="217.877382"/>
      </g>
     </g>
    </g>
    <g id="ytick_5">
     <g id="line2d_29">
      <g>
       <use style="stroke:#000000;stroke-width:0.6;" x="41.794461" xlink:href="#mc276ef52e7" y="177.754159"/>
      </g>
     </g>
    </g>
    <g id="ytick_6">
     <g id="line2d_30">
      <g>
       <use style="stroke:#000000;stroke-width:0.6;" x="41.794461" xlink:href="#mc276ef52e7" y="137.630937"/>
      </g>
     </g>
    </g>
    <g id="ytick_7">
     <g id="line2d_31">
      <g>
       <use style="stroke:#000000;stroke-width:0.6;" x="41.794461" xlink:href="#mc276ef52e7" y="97.507715"/>
      </g>
     </g>
    </g>
    <g id="ytick_8">
     <g id="line2d_32">
      <g>
       <use style="stroke:#000000;stroke-width:0.6;" x="41.794461" xlink:href="#mc276ef52e7" y="57.384493"/>
      </g>
     </g>
    </g>
    <g id="ytick_9">
     <g id="line2d_33">
      <g>
       <use style="stroke:#000000;stroke-width:0.6;" x="41.794461" xlink:href="#mc276ef52e7" y="17.261271"/>
      </g>
     </g>
    </g>
    <g id="text_12">
     <!-- Time in s -->
     <defs>
      <path d="M -0.296875 72.90625 
L 61.375 72.90625 
L 61.375 64.59375 
L 35.5 64.59375 
L 35.5 0 
L 25.59375 0 
L 25.59375 64.59375 
L -0.296875 64.59375 
z
" id="DejaVuSans-54"/>
      <path d="M 9.421875 54.6875 
L 18.40625 54.6875 
L 18.40625 0 
L 9.421875 0 
z
M 9.421875 75.984375 
L 18.40625 75.984375 
L 18.40625 64.59375 
L 9.421875 64.59375 
z
" id="DejaVuSans-69"/>
      <path d="M 52 44.1875 
Q 55.375 50.25 60.0625 53.125 
Q 64.75 56 71.09375 56 
Q 79.640625 56 84.28125 50.015625 
Q 88.921875 44.046875 88.921875 33.015625 
L 88.921875 0 
L 79.890625 0 
L 79.890625 32.71875 
Q 79.890625 40.578125 77.09375 44.375 
Q 74.3125 48.1875 68.609375 48.1875 
Q 61.625 48.1875 57.5625 43.546875 
Q 53.515625 38.921875 53.515625 30.90625 
L 53.515625 0 
L 44.484375 0 
L 44.484375 32.71875 
Q 44.484375 40.625 41.703125 44.40625 
Q 38.921875 48.1875 33.109375 48.1875 
Q 26.21875 48.1875 22.15625 43.53125 
Q 18.109375 38.875 18.109375 30.90625 
L 18.109375 0 
L 9.078125 0 
L 9.078125 54.6875 
L 18.109375 54.6875 
L 18.109375 46.1875 
Q 21.1875 51.21875 25.484375 53.609375 
Q 29.78125 56 35.6875 56 
Q 41.65625 56 45.828125 52.96875 
Q 50 49.953125 52 44.1875 
" id="DejaVuSans-6d"/>
      <path d="M 56.203125 29.59375 
L 56.203125 25.203125 
L 14.890625 25.203125 
Q 15.484375 15.921875 20.484375 11.0625 
Q 25.484375 6.203125 34.421875 6.203125 
Q 39.59375 6.203125 44.453125 7.46875 
Q 49.3125 8.734375 54.109375 11.28125 
L 54.109375 2.78125 
Q 49.265625 0.734375 44.1875 -0.34375 
Q 39.109375 -1.421875 33.890625 -1.421875 
Q 20.796875 -1.421875 13.15625 6.1875 
Q 5.515625 13.8125 5.515625 26.8125 
Q 5.515625 40.234375 12.765625 48.109375 
Q 20.015625 56 32.328125 56 
Q 43.359375 56 49.78125 48.890625 
Q 56.203125 41.796875 56.203125 29.59375 
M 47.21875 32.234375 
Q 47.125 39.59375 43.09375 43.984375 
Q 39.0625 48.390625 32.421875 48.390625 
Q 24.90625 48.390625 20.390625 44.140625 
Q 15.875 39.890625 15.1875 32.171875 
z
" id="DejaVuSans-65"/>
      <path id="DejaVuSans-20"/>
      <path d="M 54.890625 33.015625 
L 54.890625 0 
L 45.90625 0 
L 45.90625 32.71875 
Q 45.90625 40.484375 42.875 44.328125 
Q 39.84375 48.1875 33.796875 48.1875 
Q 26.515625 48.1875 22.3125 43.546875 
Q 18.109375 38.921875 18.109375 30.90625 
L 18.109375 0 
L 9.078125 0 
L 9.078125 54.6875 
L 18.109375 54.6875 
L 18.109375 46.1875 
Q 21.34375 51.125 25.703125 53.5625 
Q 30.078125 56 35.796875 56 
Q 45.21875 56 50.046875 50.171875 
Q 54.890625 44.34375 54.890625 33.015625 
" id="DejaVuSans-6e"/>
      <path d="M 44.28125 53.078125 
L 44.28125 44.578125 
Q 40.484375 46.53125 36.375 47.5 
Q 32.28125 48.484375 27.875 48.484375 
Q 21.1875 48.484375 17.84375 46.4375 
Q 14.5 44.390625 14.5 40.28125 
Q 14.5 37.15625 16.890625 35.375 
Q 19.28125 33.59375 26.515625 31.984375 
L 29.59375 31.296875 
Q 39.15625 29.25 43.1875 25.515625 
Q 47.21875 21.78125 47.21875 15.09375 
Q 47.21875 7.46875 41.1875 3.015625 
Q 35.15625 -1.421875 24.609375 -1.421875 
Q 20.21875 -1.421875 15.453125 -0.5625 
Q 10.6875 0.296875 5.421875 2 
L 5.421875 11.28125 
Q 10.40625 8.6875 15.234375 7.390625 
Q 20.0625 6.109375 24.8125 6.109375 
Q 31.15625 6.109375 34.5625 8.28125 
Q 37.984375 10.453125 37.984375 14.40625 
Q 37.984375 18.0625 35.515625 20.015625 
Q 33.0625 21.96875 24.703125 23.78125 
L 21.578125 24.515625 
Q 13.234375 26.265625 9.515625 29.90625 
Q 5.8125 33.546875 5.8125 39.890625 
Q 5.8125 47.609375 11.28125 51.796875 
Q 16.75 56 26.8125 56 
Q 31.78125 56 36.171875 55.265625 
Q 40.578125 54.546875 44.28125 53.078125 
" id="DejaVuSans-73"/>
     </defs>
     <g transform="translate(9.706804 160.524937)rotate(-90)scale(0.11 -0.11)">
      <use xlink:href="#DejaVuSans-54"/>
      <use x="61.037109" xlink:href="#DejaVuSans-69"/>
      <use x="88.820312" xlink:href="#DejaVuSans-6d"/>
      <use x="186.232422" xlink:href="#DejaVuSans-65"/>
      <use x="247.755859" xlink:href="#DejaVuSans-20"/>
      <use x="279.542969" xlink:href="#DejaVuSans-69"/>
      <use x="307.326172" xlink:href="#DejaVuSans-6e"/>
      <use x="370.705078" xlink:href="#DejaVuSans-20"/>
      <use x="402.492188" xlink:href="#DejaVuSans-73"/>
     </g>
    </g>
   </g>
   <g id="line2d_34">
    <path clip-path="url(#pf2bfd4522c)" d="M 424.301348 17.114646 
L 360.5502 57.581815 
L 296.799052 98.071561 
L 233.047904 138.262697 
L 169.296756 178.330969 
L 105.545608 217.826921 
L 41.794461 252.791857 
" style="fill:none;stroke:#009afa;stroke-linecap:round;stroke-width:1.5;"/>
   </g>
   <g id="PathCollection_1">
    <defs>
     <path d="M 0 2.5 
C 0.663008 2.5 1.29895 2.236584 1.767767 1.767767 
C 2.236584 1.29895 2.5 0.663008 2.5 0 
C 2.5 -0.663008 2.236584 -1.29895 1.767767 -1.767767 
C 1.29895 -2.236584 0.663008 -2.5 0 -2.5 
C -0.663008 -2.5 -1.29895 -2.236584 -1.767767 -1.767767 
C -2.236584 -1.29895 -2.5 -0.663008 -2.5 0 
C -2.5 0.663008 -2.236584 1.29895 -1.767767 1.767767 
C -1.29895 2.236584 -0.663008 2.5 0 2.5 
z
" id="m9e0b9fb39b"/>
    </defs>
    <g clip-path="url(#pf2bfd4522c)">
     <use style="fill:#009afa;fill-opacity:0.8;" x="424.301348" xlink:href="#m9e0b9fb39b" y="17.114646"/>
     <use style="fill:#009afa;fill-opacity:0.8;" x="360.5502" xlink:href="#m9e0b9fb39b" y="57.581815"/>
     <use style="fill:#009afa;fill-opacity:0.8;" x="296.799052" xlink:href="#m9e0b9fb39b" y="98.071561"/>
     <use style="fill:#009afa;fill-opacity:0.8;" x="233.047904" xlink:href="#m9e0b9fb39b" y="138.262697"/>
     <use style="fill:#009afa;fill-opacity:0.8;" x="169.296756" xlink:href="#m9e0b9fb39b" y="178.330969"/>
     <use style="fill:#009afa;fill-opacity:0.8;" x="105.545608" xlink:href="#m9e0b9fb39b" y="217.826921"/>
     <use style="fill:#009afa;fill-opacity:0.8;" x="41.794461" xlink:href="#m9e0b9fb39b" y="252.791857"/>
    </g>
   </g>
   <g id="line2d_35">
    <path clip-path="url(#pf2bfd4522c)" d="M 424.301348 19.542788 
L 360.5502 59.9103 
L 296.799052 101.334372 
L 233.047904 141.712834 
L 169.296756 181.712561 
L 105.545608 220.784659 
L 41.794461 253.933354 
" style="fill:none;stroke:#e36f47;stroke-linecap:round;stroke-width:1.5;"/>
   </g>
   <g id="PathCollection_2">
    <defs>
     <path d="M 0 2.5 
C 0.663008 2.5 1.29895 2.236584 1.767767 1.767767 
C 2.236584 1.29895 2.5 0.663008 2.5 0 
C 2.5 -0.663008 2.236584 -1.29895 1.767767 -1.767767 
C 1.29895 -2.236584 0.663008 -2.5 0 -2.5 
C -0.663008 -2.5 -1.29895 -2.236584 -1.767767 -1.767767 
C -2.236584 -1.29895 -2.5 -0.663008 -2.5 0 
C -2.5 0.663008 -2.236584 1.29895 -1.767767 1.767767 
C -1.29895 2.236584 -0.663008 2.5 0 2.5 
z
" id="mb383d2f7ea"/>
    </defs>
    <g clip-path="url(#pf2bfd4522c)">
     <use style="fill:#e36f47;fill-opacity:0.8;" x="424.301348" xlink:href="#mb383d2f7ea" y="19.542788"/>
     <use style="fill:#e36f47;fill-opacity:0.8;" x="360.5502" xlink:href="#mb383d2f7ea" y="59.9103"/>
     <use style="fill:#e36f47;fill-opacity:0.8;" x="296.799052" xlink:href="#mb383d2f7ea" y="101.334372"/>
     <use style="fill:#e36f47;fill-opacity:0.8;" x="233.047904" xlink:href="#mb383d2f7ea" y="141.712834"/>
     <use style="fill:#e36f47;fill-opacity:0.8;" x="169.296756" xlink:href="#mb383d2f7ea" y="181.712561"/>
     <use style="fill:#e36f47;fill-opacity:0.8;" x="105.545608" xlink:href="#mb383d2f7ea" y="220.784659"/>
     <use style="fill:#e36f47;fill-opacity:0.8;" x="41.794461" xlink:href="#mb383d2f7ea" y="253.933354"/>
    </g>
   </g>
   <g id="patch_3">
    <path d="M 41.794461 253.933354 
L 41.794461 17.114646 
" style="fill:none;stroke:#000000;stroke-linecap:square;stroke-linejoin:miter;stroke-width:0.8;"/>
   </g>
   <g id="patch_4">
    <path d="M 424.301348 253.933354 
L 424.301348 17.114646 
" style="fill:none;stroke:#000000;stroke-linecap:square;stroke-linejoin:miter;stroke-width:0.8;"/>
   </g>
   <g id="patch_5">
    <path d="M 41.794461 253.933354 
L 424.301348 253.933354 
" style="fill:none;stroke:#000000;stroke-linecap:square;stroke-linejoin:miter;stroke-width:0.8;"/>
   </g>
   <g id="patch_6">
    <path d="M 41.794461 17.114646 
L 424.301348 17.114646 
" style="fill:none;stroke:#000000;stroke-linecap:square;stroke-linejoin:miter;stroke-width:0.8;"/>
   </g>
   <g id="line2d_36">
    <path clip-path="url(#pf2bfd4522c)" d="M 424.301348 44.516113 
L 360.5502 84.208241 
L 296.799052 126.643266 
L 233.047904 165.815566 
L 169.296756 194.95681 
L 105.545608 206.48503 
L 41.794461 208.268886 
" style="fill:none;stroke:#3ea44e;stroke-linecap:round;stroke-width:1.5;"/>
   </g>
   <g id="text_13">
    <!-- blackscholes -->
    <defs>
     <path d="M 48.6875 27.296875 
Q 48.6875 37.203125 44.609375 42.84375 
Q 40.53125 48.484375 33.40625 48.484375 
Q 26.265625 48.484375 22.1875 42.84375 
Q 18.109375 37.203125 18.109375 27.296875 
Q 18.109375 17.390625 22.1875 11.75 
Q 26.265625 6.109375 33.40625 6.109375 
Q 40.53125 6.109375 44.609375 11.75 
Q 48.6875 17.390625 48.6875 27.296875 
M 18.109375 46.390625 
Q 20.953125 51.265625 25.265625 53.625 
Q 29.59375 56 35.59375 56 
Q 45.5625 56 51.78125 48.09375 
Q 58.015625 40.1875 58.015625 27.296875 
Q 58.015625 14.40625 51.78125 6.484375 
Q 45.5625 -1.421875 35.59375 -1.421875 
Q 29.59375 -1.421875 25.265625 0.953125 
Q 20.953125 3.328125 18.109375 8.203125 
L 18.109375 0 
L 9.078125 0 
L 9.078125 75.984375 
L 18.109375 75.984375 
z
" id="DejaVuSans-62"/>
     <path d="M 9.421875 75.984375 
L 18.40625 75.984375 
L 18.40625 0 
L 9.421875 0 
z
" id="DejaVuSans-6c"/>
     <path d="M 34.28125 27.484375 
Q 23.390625 27.484375 19.1875 25 
Q 14.984375 22.515625 14.984375 16.5 
Q 14.984375 11.71875 18.140625 8.90625 
Q 21.296875 6.109375 26.703125 6.109375 
Q 34.1875 6.109375 38.703125 11.40625 
Q 43.21875 16.703125 43.21875 25.484375 
L 43.21875 27.484375 
z
M 52.203125 31.203125 
L 52.203125 0 
L 43.21875 0 
L 43.21875 8.296875 
Q 40.140625 3.328125 35.546875 0.953125 
Q 30.953125 -1.421875 24.3125 -1.421875 
Q 15.921875 -1.421875 10.953125 3.296875 
Q 6 8.015625 6 15.921875 
Q 6 25.140625 12.171875 29.828125 
Q 18.359375 34.515625 30.609375 34.515625 
L 43.21875 34.515625 
L 43.21875 35.40625 
Q 43.21875 41.609375 39.140625 45 
Q 35.0625 48.390625 27.6875 48.390625 
Q 23 48.390625 18.546875 47.265625 
Q 14.109375 46.140625 10.015625 43.890625 
L 10.015625 52.203125 
Q 14.9375 54.109375 19.578125 55.046875 
Q 24.21875 56 28.609375 56 
Q 40.484375 56 46.34375 49.84375 
Q 52.203125 43.703125 52.203125 31.203125 
" id="DejaVuSans-61"/>
     <path d="M 48.78125 52.59375 
L 48.78125 44.1875 
Q 44.96875 46.296875 41.140625 47.34375 
Q 37.3125 48.390625 33.40625 48.390625 
Q 24.65625 48.390625 19.8125 42.84375 
Q 14.984375 37.3125 14.984375 27.296875 
Q 14.984375 17.28125 19.8125 11.734375 
Q 24.65625 6.203125 33.40625 6.203125 
Q 37.3125 6.203125 41.140625 7.25 
Q 44.96875 8.296875 48.78125 10.40625 
L 48.78125 2.09375 
Q 45.015625 0.34375 40.984375 -0.53125 
Q 36.96875 -1.421875 32.421875 -1.421875 
Q 20.0625 -1.421875 12.78125 6.34375 
Q 5.515625 14.109375 5.515625 27.296875 
Q 5.515625 40.671875 12.859375 48.328125 
Q 20.21875 56 33.015625 56 
Q 37.15625 56 41.109375 55.140625 
Q 45.0625 54.296875 48.78125 52.59375 
" id="DejaVuSans-63"/>
     <path d="M 9.078125 75.984375 
L 18.109375 75.984375 
L 18.109375 31.109375 
L 44.921875 54.6875 
L 56.390625 54.6875 
L 27.390625 29.109375 
L 57.625 0 
L 45.90625 0 
L 18.109375 26.703125 
L 18.109375 0 
L 9.078125 0 
z
" id="DejaVuSans-6b"/>
     <path d="M 54.890625 33.015625 
L 54.890625 0 
L 45.90625 0 
L 45.90625 32.71875 
Q 45.90625 40.484375 42.875 44.328125 
Q 39.84375 48.1875 33.796875 48.1875 
Q 26.515625 48.1875 22.3125 43.546875 
Q 18.109375 38.921875 18.109375 30.90625 
L 18.109375 0 
L 9.078125 0 
L 9.078125 75.984375 
L 18.109375 75.984375 
L 18.109375 46.1875 
Q 21.34375 51.125 25.703125 53.5625 
Q 30.078125 56 35.796875 56 
Q 45.21875 56 50.046875 50.171875 
Q 54.890625 44.34375 54.890625 33.015625 
" id="DejaVuSans-68"/>
     <path d="M 30.609375 48.390625 
Q 23.390625 48.390625 19.1875 42.75 
Q 14.984375 37.109375 14.984375 27.296875 
Q 14.984375 17.484375 19.15625 11.84375 
Q 23.34375 6.203125 30.609375 6.203125 
Q 37.796875 6.203125 41.984375 11.859375 
Q 46.1875 17.53125 46.1875 27.296875 
Q 46.1875 37.015625 41.984375 42.703125 
Q 37.796875 48.390625 30.609375 48.390625 
M 30.609375 56 
Q 42.328125 56 49.015625 48.375 
Q 55.71875 40.765625 55.71875 27.296875 
Q 55.71875 13.875 49.015625 6.21875 
Q 42.328125 -1.421875 30.609375 -1.421875 
Q 18.84375 -1.421875 12.171875 6.21875 
Q 5.515625 13.875 5.515625 27.296875 
Q 5.515625 40.765625 12.171875 48.375 
Q 18.84375 56 30.609375 56 
" id="DejaVuSans-6f"/>
    </defs>
    <g transform="translate(188.353998 11.114646)scale(0.14 -0.14)">
     <use xlink:href="#DejaVuSans-62"/>
     <use x="63.476562" xlink:href="#DejaVuSans-6c"/>
     <use x="91.259766" xlink:href="#DejaVuSans-61"/>
     <use x="152.539062" xlink:href="#DejaVuSans-63"/>
     <use x="207.519531" xlink:href="#DejaVuSans-6b"/>
     <use x="265.429688" xlink:href="#DejaVuSans-73"/>
     <use x="317.529297" xlink:href="#DejaVuSans-63"/>
     <use x="372.509766" xlink:href="#DejaVuSans-68"/>
     <use x="435.888672" xlink:href="#DejaVuSans-6f"/>
     <use x="497.070312" xlink:href="#DejaVuSans-6c"/>
     <use x="524.853516" xlink:href="#DejaVuSans-65"/>
     <use x="586.376953" xlink:href="#DejaVuSans-73"/>
    </g>
   </g>
   <g id="PathCollection_3">
    <defs>
     <path d="M 0 2.5 
C 0.663008 2.5 1.29895 2.236584 1.767767 1.767767 
C 2.236584 1.29895 2.5 0.663008 2.5 0 
C 2.5 -0.663008 2.236584 -1.29895 1.767767 -1.767767 
C 1.29895 -2.236584 0.663008 -2.5 0 -2.5 
C -0.663008 -2.5 -1.29895 -2.236584 -1.767767 -1.767767 
C -2.236584 -1.29895 -2.5 -0.663008 -2.5 0 
C -2.5 0.663008 -2.236584 1.29895 -1.767767 1.767767 
C -1.29895 2.236584 -0.663008 2.5 0 2.5 
z
" id="mf7224c0c5d"/>
    </defs>
    <g clip-path="url(#pf2bfd4522c)">
     <use style="fill:#3ea44e;fill-opacity:0.8;" x="424.301348" xlink:href="#mf7224c0c5d" y="44.516113"/>
     <use style="fill:#3ea44e;fill-opacity:0.8;" x="360.5502" xlink:href="#mf7224c0c5d" y="84.208241"/>
     <use style="fill:#3ea44e;fill-opacity:0.8;" x="296.799052" xlink:href="#mf7224c0c5d" y="126.643266"/>
     <use style="fill:#3ea44e;fill-opacity:0.8;" x="233.047904" xlink:href="#mf7224c0c5d" y="165.815566"/>
     <use style="fill:#3ea44e;fill-opacity:0.8;" x="169.296756" xlink:href="#mf7224c0c5d" y="194.95681"/>
     <use style="fill:#3ea44e;fill-opacity:0.8;" x="105.545608" xlink:href="#mf7224c0c5d" y="206.48503"/>
     <use style="fill:#3ea44e;fill-opacity:0.8;" x="41.794461" xlink:href="#mf7224c0c5d" y="208.268886"/>
    </g>
   </g>
   <g id="line2d_37">
    <path clip-path="url(#pf2bfd4522c)" d="M 424.301348 45.473323 
L 360.5502 85.647464 
L 296.799052 130.553511 
L 233.047904 170.612655 
L 169.296756 209.679808 
L 105.545608 240.218981 
L 41.794461 252.053044 
" style="fill:none;stroke:#c371d2;stroke-linecap:round;stroke-width:1.5;"/>
   </g>
   <g id="PathCollection_4">
    <defs>
     <path d="M 0 2.5 
C 0.663008 2.5 1.29895 2.236584 1.767767 1.767767 
C 2.236584 1.29895 2.5 0.663008 2.5 0 
C 2.5 -0.663008 2.236584 -1.29895 1.767767 -1.767767 
C 1.29895 -2.236584 0.663008 -2.5 0 -2.5 
C -0.663008 -2.5 -1.29895 -2.236584 -1.767767 -1.767767 
C -2.236584 -1.29895 -2.5 -0.663008 -2.5 0 
C -2.5 0.663008 -2.236584 1.29895 -1.767767 1.767767 
C -1.29895 2.236584 -0.663008 2.5 0 2.5 
z
" id="m96a45a05f0"/>
    </defs>
    <g clip-path="url(#pf2bfd4522c)">
     <use style="fill:#c371d2;fill-opacity:0.8;" x="424.301348" xlink:href="#m96a45a05f0" y="45.473323"/>
     <use style="fill:#c371d2;fill-opacity:0.8;" x="360.5502" xlink:href="#m96a45a05f0" y="85.647464"/>
     <use style="fill:#c371d2;fill-opacity:0.8;" x="296.799052" xlink:href="#m96a45a05f0" y="130.553511"/>
     <use style="fill:#c371d2;fill-opacity:0.8;" x="233.047904" xlink:href="#m96a45a05f0" y="170.612655"/>
     <use style="fill:#c371d2;fill-opacity:0.8;" x="169.296756" xlink:href="#m96a45a05f0" y="209.679808"/>
     <use style="fill:#c371d2;fill-opacity:0.8;" x="105.545608" xlink:href="#m96a45a05f0" y="240.218981"/>
     <use style="fill:#c371d2;fill-opacity:0.8;" x="41.794461" xlink:href="#m96a45a05f0" y="252.053044"/>
    </g>
   </g>
   <g id="line2d_38">
    <path clip-path="url(#pf2bfd4522c)" d="M 424.301348 78.312802 
L 360.5502 118.650226 
L 296.799052 157.592754 
L 233.047904 189.387902 
L 169.296756 195.6397 
L 105.545608 201.752548 
L 41.794461 202.151476 
" style="fill:none;stroke:#ac8e18;stroke-linecap:round;stroke-width:1.5;"/>
   </g>
   <g id="PathCollection_5">
    <defs>
     <path d="M 0 2.5 
C 0.663008 2.5 1.29895 2.236584 1.767767 1.767767 
C 2.236584 1.29895 2.5 0.663008 2.5 0 
C 2.5 -0.663008 2.236584 -1.29895 1.767767 -1.767767 
C 1.29895 -2.236584 0.663008 -2.5 0 -2.5 
C -0.663008 -2.5 -1.29895 -2.236584 -1.767767 -1.767767 
C -2.236584 -1.29895 -2.5 -0.663008 -2.5 0 
C -2.5 0.663008 -2.236584 1.29895 -1.767767 1.767767 
C -1.29895 2.236584 -0.663008 2.5 0 2.5 
z
" id="m50bc2ea6e4"/>
    </defs>
    <g clip-path="url(#pf2bfd4522c)">
     <use style="fill:#ac8e18;fill-opacity:0.8;" x="424.301348" xlink:href="#m50bc2ea6e4" y="78.312802"/>
     <use style="fill:#ac8e18;fill-opacity:0.8;" x="360.5502" xlink:href="#m50bc2ea6e4" y="118.650226"/>
     <use style="fill:#ac8e18;fill-opacity:0.8;" x="296.799052" xlink:href="#m50bc2ea6e4" y="157.592754"/>
     <use style="fill:#ac8e18;fill-opacity:0.8;" x="233.047904" xlink:href="#m50bc2ea6e4" y="189.387902"/>
     <use style="fill:#ac8e18;fill-opacity:0.8;" x="169.296756" xlink:href="#m50bc2ea6e4" y="195.6397"/>
     <use style="fill:#ac8e18;fill-opacity:0.8;" x="105.545608" xlink:href="#m50bc2ea6e4" y="201.752548"/>
     <use style="fill:#ac8e18;fill-opacity:0.8;" x="41.794461" xlink:href="#m50bc2ea6e4" y="202.151476"/>
    </g>
   </g>
   <g id="line2d_39">
    <path clip-path="url(#pf2bfd4522c)" d="M 424.301348 117.354744 
L 360.5502 153.461102 
L 296.799052 173.636208 
L 233.047904 178.238276 
L 169.296756 178.673658 
L 105.545608 178.962231 
L 41.794461 179.452978 
" style="fill:none;stroke:#00aaae;stroke-linecap:round;stroke-width:1.5;"/>
   </g>
   <g id="PathCollection_6">
    <defs>
     <path d="M 0 2.5 
C 0.663008 2.5 1.29895 2.236584 1.767767 1.767767 
C 2.236584 1.29895 2.5 0.663008 2.5 0 
C 2.5 -0.663008 2.236584 -1.29895 1.767767 -1.767767 
C 1.29895 -2.236584 0.663008 -2.5 0 -2.5 
C -0.663008 -2.5 -1.29895 -2.236584 -1.767767 -1.767767 
C -2.236584 -1.29895 -2.5 -0.663008 -2.5 0 
C -2.5 0.663008 -2.236584 1.29895 -1.767767 1.767767 
C -1.29895 2.236584 -0.663008 2.5 0 2.5 
z
" id="m097a76aa9d"/>
    </defs>
    <g clip-path="url(#pf2bfd4522c)">
     <use style="fill:#00aaae;fill-opacity:0.8;" x="424.301348" xlink:href="#m097a76aa9d" y="117.354744"/>
     <use style="fill:#00aaae;fill-opacity:0.8;" x="360.5502" xlink:href="#m097a76aa9d" y="153.461102"/>
     <use style="fill:#00aaae;fill-opacity:0.8;" x="296.799052" xlink:href="#m097a76aa9d" y="173.636208"/>
     <use style="fill:#00aaae;fill-opacity:0.8;" x="233.047904" xlink:href="#m097a76aa9d" y="178.238276"/>
     <use style="fill:#00aaae;fill-opacity:0.8;" x="169.296756" xlink:href="#m097a76aa9d" y="178.673658"/>
     <use style="fill:#00aaae;fill-opacity:0.8;" x="105.545608" xlink:href="#m097a76aa9d" y="178.962231"/>
     <use style="fill:#00aaae;fill-opacity:0.8;" x="41.794461" xlink:href="#m097a76aa9d" y="179.452978"/>
    </g>
   </g>
   <g id="line2d_40">
    <path clip-path="url(#pf2bfd4522c)" d="M 424.301348 133.371308 
L 360.5502 169.015651 
L 296.799052 187.506195 
L 233.047904 192.02201 
L 169.296756 192.087731 
L 105.545608 192.193164 
L 41.794461 192.373677 
" style="fill:none;stroke:#ed5e93;stroke-linecap:round;stroke-width:1.5;"/>
   </g>
   <g id="PathCollection_7">
    <defs>
     <path d="M 0 2.5 
C 0.663008 2.5 1.29895 2.236584 1.767767 1.767767 
C 2.236584 1.29895 2.5 0.663008 2.5 0 
C 2.5 -0.663008 2.236584 -1.29895 1.767767 -1.767767 
C 1.29895 -2.236584 0.663008 -2.5 0 -2.5 
C -0.663008 -2.5 -1.29895 -2.236584 -1.767767 -1.767767 
C -2.236584 -1.29895 -2.5 -0.663008 -2.5 0 
C -2.5 0.663008 -2.236584 1.29895 -1.767767 1.767767 
C -1.29895 2.236584 -0.663008 2.5 0 2.5 
z
" id="m10c25e5737"/>
    </defs>
    <g clip-path="url(#pf2bfd4522c)">
     <use style="fill:#ed5e93;fill-opacity:0.8;" x="424.301348" xlink:href="#m10c25e5737" y="133.371308"/>
     <use style="fill:#ed5e93;fill-opacity:0.8;" x="360.5502" xlink:href="#m10c25e5737" y="169.015651"/>
     <use style="fill:#ed5e93;fill-opacity:0.8;" x="296.799052" xlink:href="#m10c25e5737" y="187.506195"/>
     <use style="fill:#ed5e93;fill-opacity:0.8;" x="233.047904" xlink:href="#m10c25e5737" y="192.02201"/>
     <use style="fill:#ed5e93;fill-opacity:0.8;" x="169.296756" xlink:href="#m10c25e5737" y="192.087731"/>
     <use style="fill:#ed5e93;fill-opacity:0.8;" x="105.545608" xlink:href="#m10c25e5737" y="192.193164"/>
     <use style="fill:#ed5e93;fill-opacity:0.8;" x="41.794461" xlink:href="#m10c25e5737" y="192.373677"/>
    </g>
   </g>
   <g id="legend_1">
    <g id="patch_7">
     <path d="M 47.394461 105.712146 
L 251.250711 105.712146 
Q 252.850711 105.712146 252.850711 104.112146 
L 252.850711 22.714646 
Q 252.850711 21.114646 251.250711 21.114646 
L 47.394461 21.114646 
Q 45.794461 21.114646 45.794461 22.714646 
L 45.794461 104.112146 
Q 45.794461 105.712146 47.394461 105.712146 
z
" style="fill:#ffffff;opacity:0.8;stroke:#000000;stroke-linejoin:miter;"/>
    </g>
    <g id="line2d_41">
     <path d="M 48.994461 27.593396 
L 64.994461 27.593396 
" style="fill:none;stroke:#009afa;stroke-linecap:round;stroke-width:1.5;"/>
    </g>
    <g id="line2d_42"/>
    <g id="text_14">
     <!-- JLContext i3-4130 CPU @ 3.40GHz 1 threads -->
     <defs>
      <path d="M 9.8125 72.90625 
L 19.671875 72.90625 
L 19.671875 5.078125 
Q 19.671875 -8.109375 14.671875 -14.0625 
Q 9.671875 -20.015625 -1.421875 -20.015625 
L -5.171875 -20.015625 
L -5.171875 -11.71875 
L -2.09375 -11.71875 
Q 4.4375 -11.71875 7.125 -8.046875 
Q 9.8125 -4.390625 9.8125 5.078125 
z
" id="DejaVuSans-4a"/>
      <path d="M 9.8125 72.90625 
L 19.671875 72.90625 
L 19.671875 8.296875 
L 55.171875 8.296875 
L 55.171875 0 
L 9.8125 0 
z
" id="DejaVuSans-4c"/>
      <path d="M 64.40625 67.28125 
L 64.40625 56.890625 
Q 59.421875 61.53125 53.78125 63.8125 
Q 48.140625 66.109375 41.796875 66.109375 
Q 29.296875 66.109375 22.65625 58.46875 
Q 16.015625 50.828125 16.015625 36.375 
Q 16.015625 21.96875 22.65625 14.328125 
Q 29.296875 6.6875 41.796875 6.6875 
Q 48.140625 6.6875 53.78125 8.984375 
Q 59.421875 11.28125 64.40625 15.921875 
L 64.40625 5.609375 
Q 59.234375 2.09375 53.4375 0.328125 
Q 47.65625 -1.421875 41.21875 -1.421875 
Q 24.65625 -1.421875 15.125 8.703125 
Q 5.609375 18.84375 5.609375 36.375 
Q 5.609375 53.953125 15.125 64.078125 
Q 24.65625 74.21875 41.21875 74.21875 
Q 47.75 74.21875 53.53125 72.484375 
Q 59.328125 70.75 64.40625 67.28125 
" id="DejaVuSans-43"/>
      <path d="M 18.3125 70.21875 
L 18.3125 54.6875 
L 36.8125 54.6875 
L 36.8125 47.703125 
L 18.3125 47.703125 
L 18.3125 18.015625 
Q 18.3125 11.328125 20.140625 9.421875 
Q 21.96875 7.515625 27.59375 7.515625 
L 36.8125 7.515625 
L 36.8125 0 
L 27.59375 0 
Q 17.1875 0 13.234375 3.875 
Q 9.28125 7.765625 9.28125 18.015625 
L 9.28125 47.703125 
L 2.6875 47.703125 
L 2.6875 54.6875 
L 9.28125 54.6875 
L 9.28125 70.21875 
z
" id="DejaVuSans-74"/>
      <path d="M 54.890625 54.6875 
L 35.109375 28.078125 
L 55.90625 0 
L 45.3125 0 
L 29.390625 21.484375 
L 13.484375 0 
L 2.875 0 
L 24.125 28.609375 
L 4.6875 54.6875 
L 15.28125 54.6875 
L 29.78125 35.203125 
L 44.28125 54.6875 
z
" id="DejaVuSans-78"/>
      <path d="M 4.890625 31.390625 
L 31.203125 31.390625 
L 31.203125 23.390625 
L 4.890625 23.390625 
z
" id="DejaVuSans-2d"/>
      <path d="M 19.671875 64.796875 
L 19.671875 37.40625 
L 32.078125 37.40625 
Q 38.96875 37.40625 42.71875 40.96875 
Q 46.484375 44.53125 46.484375 51.125 
Q 46.484375 57.671875 42.71875 61.234375 
Q 38.96875 64.796875 32.078125 64.796875 
z
M 9.8125 72.90625 
L 32.078125 72.90625 
Q 44.34375 72.90625 50.609375 67.359375 
Q 56.890625 61.8125 56.890625 51.125 
Q 56.890625 40.328125 50.609375 34.8125 
Q 44.34375 29.296875 32.078125 29.296875 
L 19.671875 29.296875 
L 19.671875 0 
L 9.8125 0 
z
" id="DejaVuSans-50"/>
      <path d="M 8.6875 72.90625 
L 18.609375 72.90625 
L 18.609375 28.609375 
Q 18.609375 16.890625 22.84375 11.734375 
Q 27.09375 6.59375 36.625 6.59375 
Q 46.09375 6.59375 50.34375 11.734375 
Q 54.59375 16.890625 54.59375 28.609375 
L 54.59375 72.90625 
L 64.5 72.90625 
L 64.5 27.390625 
Q 64.5 13.140625 57.4375 5.859375 
Q 50.390625 -1.421875 36.625 -1.421875 
Q 22.796875 -1.421875 15.734375 5.859375 
Q 8.6875 13.140625 8.6875 27.390625 
z
" id="DejaVuSans-55"/>
      <path d="M 37.203125 26.21875 
Q 37.203125 19.234375 40.671875 15.25 
Q 44.140625 11.28125 50.203125 11.28125 
Q 56.203125 11.28125 59.640625 15.28125 
Q 63.09375 19.28125 63.09375 26.21875 
Q 63.09375 33.0625 59.578125 37.078125 
Q 56.0625 41.109375 50.09375 41.109375 
Q 44.1875 41.109375 40.6875 37.109375 
Q 37.203125 33.109375 37.203125 26.21875 
M 63.8125 11.625 
Q 60.890625 7.859375 57.109375 6.078125 
Q 53.328125 4.296875 48.296875 4.296875 
Q 39.890625 4.296875 34.640625 10.375 
Q 29.390625 16.453125 29.390625 26.21875 
Q 29.390625 35.984375 34.65625 42.078125 
Q 39.9375 48.1875 48.296875 48.1875 
Q 53.328125 48.1875 57.125 46.359375 
Q 60.9375 44.53125 63.8125 40.828125 
L 63.8125 47.21875 
L 70.796875 47.21875 
L 70.796875 11.28125 
Q 77.9375 12.359375 81.953125 17.796875 
Q 85.984375 23.25 85.984375 31.890625 
Q 85.984375 37.109375 84.4375 41.703125 
Q 82.90625 46.296875 79.78125 50.203125 
Q 74.703125 56.59375 67.40625 59.984375 
Q 60.109375 63.375 51.515625 63.375 
Q 45.515625 63.375 39.984375 61.78125 
Q 34.46875 60.203125 29.78125 57.078125 
Q 22.125 52.09375 17.796875 44.015625 
Q 13.484375 35.9375 13.484375 26.515625 
Q 13.484375 18.75 16.28125 11.953125 
Q 19.09375 5.171875 24.421875 0 
Q 29.546875 -5.078125 36.28125 -7.734375 
Q 43.015625 -10.40625 50.6875 -10.40625 
Q 56.984375 -10.40625 63.0625 -8.28125 
Q 69.140625 -6.15625 74.21875 -2.203125 
L 78.609375 -7.625 
Q 72.515625 -12.359375 65.3125 -14.875 
Q 58.109375 -17.390625 50.6875 -17.390625 
Q 41.65625 -17.390625 33.640625 -14.1875 
Q 25.640625 -10.984375 19.390625 -4.890625 
Q 13.140625 1.21875 9.859375 9.25 
Q 6.59375 17.28125 6.59375 26.515625 
Q 6.59375 35.40625 9.90625 43.453125 
Q 13.234375 51.515625 19.390625 57.625 
Q 25.6875 63.8125 33.9375 67.109375 
Q 42.1875 70.40625 51.421875 70.40625 
Q 61.765625 70.40625 70.625 66.15625 
Q 79.5 61.921875 85.5 54.109375 
Q 89.15625 49.3125 91.078125 43.703125 
Q 93.015625 38.09375 93.015625 32.078125 
Q 93.015625 19.234375 85.25 11.8125 
Q 77.484375 4.390625 63.8125 4.109375 
z
" id="DejaVuSans-40"/>
      <path d="M 10.6875 12.40625 
L 21 12.40625 
L 21 0 
L 10.6875 0 
z
" id="DejaVuSans-2e"/>
      <path d="M 59.515625 10.40625 
L 59.515625 29.984375 
L 43.40625 29.984375 
L 43.40625 38.09375 
L 69.28125 38.09375 
L 69.28125 6.78125 
Q 63.578125 2.734375 56.6875 0.65625 
Q 49.8125 -1.421875 42 -1.421875 
Q 24.90625 -1.421875 15.25 8.5625 
Q 5.609375 18.5625 5.609375 36.375 
Q 5.609375 54.25 15.25 64.234375 
Q 24.90625 74.21875 42 74.21875 
Q 49.125 74.21875 55.546875 72.453125 
Q 61.96875 70.703125 67.390625 67.28125 
L 67.390625 56.78125 
Q 61.921875 61.421875 55.765625 63.765625 
Q 49.609375 66.109375 42.828125 66.109375 
Q 29.4375 66.109375 22.71875 58.640625 
Q 16.015625 51.171875 16.015625 36.375 
Q 16.015625 21.625 22.71875 14.15625 
Q 29.4375 6.6875 42.828125 6.6875 
Q 48.046875 6.6875 52.140625 7.59375 
Q 56.25 8.5 59.515625 10.40625 
" id="DejaVuSans-47"/>
      <path d="M 9.8125 72.90625 
L 19.671875 72.90625 
L 19.671875 43.015625 
L 55.515625 43.015625 
L 55.515625 72.90625 
L 65.375 72.90625 
L 65.375 0 
L 55.515625 0 
L 55.515625 34.71875 
L 19.671875 34.71875 
L 19.671875 0 
L 9.8125 0 
z
" id="DejaVuSans-48"/>
      <path d="M 5.515625 54.6875 
L 48.1875 54.6875 
L 48.1875 46.484375 
L 14.40625 7.171875 
L 48.1875 7.171875 
L 48.1875 0 
L 4.296875 0 
L 4.296875 8.203125 
L 38.09375 47.515625 
L 5.515625 47.515625 
z
" id="DejaVuSans-7a"/>
      <path d="M 41.109375 46.296875 
Q 39.59375 47.171875 37.8125 47.578125 
Q 36.03125 48 33.890625 48 
Q 26.265625 48 22.1875 43.046875 
Q 18.109375 38.09375 18.109375 28.8125 
L 18.109375 0 
L 9.078125 0 
L 9.078125 54.6875 
L 18.109375 54.6875 
L 18.109375 46.1875 
Q 20.953125 51.171875 25.484375 53.578125 
Q 30.03125 56 36.53125 56 
Q 37.453125 56 38.578125 55.875 
Q 39.703125 55.765625 41.0625 55.515625 
z
" id="DejaVuSans-72"/>
      <path d="M 45.40625 46.390625 
L 45.40625 75.984375 
L 54.390625 75.984375 
L 54.390625 0 
L 45.40625 0 
L 45.40625 8.203125 
Q 42.578125 3.328125 38.25 0.953125 
Q 33.9375 -1.421875 27.875 -1.421875 
Q 17.96875 -1.421875 11.734375 6.484375 
Q 5.515625 14.40625 5.515625 27.296875 
Q 5.515625 40.1875 11.734375 48.09375 
Q 17.96875 56 27.875 56 
Q 33.9375 56 38.25 53.625 
Q 42.578125 51.265625 45.40625 46.390625 
M 14.796875 27.296875 
Q 14.796875 17.390625 18.875 11.75 
Q 22.953125 6.109375 30.078125 6.109375 
Q 37.203125 6.109375 41.296875 11.75 
Q 45.40625 17.390625 45.40625 27.296875 
Q 45.40625 37.203125 41.296875 42.84375 
Q 37.203125 48.484375 30.078125 48.484375 
Q 22.953125 48.484375 18.875 42.84375 
Q 14.796875 37.203125 14.796875 27.296875 
" id="DejaVuSans-64"/>
     </defs>
     <g transform="translate(71.394461 30.393396)scale(0.08 -0.08)">
      <use xlink:href="#DejaVuSans-4a"/>
      <use x="29.492188" xlink:href="#DejaVuSans-4c"/>
      <use x="85.205078" xlink:href="#DejaVuSans-43"/>
      <use x="155.029297" xlink:href="#DejaVuSans-6f"/>
      <use x="216.210938" xlink:href="#DejaVuSans-6e"/>
      <use x="279.589844" xlink:href="#DejaVuSans-74"/>
      <use x="318.798828" xlink:href="#DejaVuSans-65"/>
      <use x="380.306641" xlink:href="#DejaVuSans-78"/>
      <use x="439.486328" xlink:href="#DejaVuSans-74"/>
      <use x="478.695312" xlink:href="#DejaVuSans-20"/>
      <use x="510.482422" xlink:href="#DejaVuSans-69"/>
      <use x="538.265625" xlink:href="#DejaVuSans-33"/>
      <use x="601.888672" xlink:href="#DejaVuSans-2d"/>
      <use x="637.972656" xlink:href="#DejaVuSans-34"/>
      <use x="701.595703" xlink:href="#DejaVuSans-31"/>
      <use x="765.21875" xlink:href="#DejaVuSans-33"/>
      <use x="828.841797" xlink:href="#DejaVuSans-30"/>
      <use x="892.464844" xlink:href="#DejaVuSans-20"/>
      <use x="924.251953" xlink:href="#DejaVuSans-43"/>
      <use x="994.076172" xlink:href="#DejaVuSans-50"/>
      <use x="1054.378906" xlink:href="#DejaVuSans-55"/>
      <use x="1127.572266" xlink:href="#DejaVuSans-20"/>
      <use x="1159.359375" xlink:href="#DejaVuSans-40"/>
      <use x="1259.359375" xlink:href="#DejaVuSans-20"/>
      <use x="1291.146484" xlink:href="#DejaVuSans-33"/>
      <use x="1354.769531" xlink:href="#DejaVuSans-2e"/>
      <use x="1386.556641" xlink:href="#DejaVuSans-34"/>
      <use x="1450.179688" xlink:href="#DejaVuSans-30"/>
      <use x="1513.802734" xlink:href="#DejaVuSans-47"/>
      <use x="1591.292969" xlink:href="#DejaVuSans-48"/>
      <use x="1666.488281" xlink:href="#DejaVuSans-7a"/>
      <use x="1718.978516" xlink:href="#DejaVuSans-20"/>
      <use x="1750.765625" xlink:href="#DejaVuSans-31"/>
      <use x="1814.388672" xlink:href="#DejaVuSans-20"/>
      <use x="1846.175781" xlink:href="#DejaVuSans-74"/>
      <use x="1885.384766" xlink:href="#DejaVuSans-68"/>
      <use x="1948.763672" xlink:href="#DejaVuSans-72"/>
      <use x="1989.845703" xlink:href="#DejaVuSans-65"/>
      <use x="2051.369141" xlink:href="#DejaVuSans-61"/>
      <use x="2112.648438" xlink:href="#DejaVuSans-64"/>
      <use x="2176.125" xlink:href="#DejaVuSans-73"/>
     </g>
    </g>
    <g id="line2d_43">
     <path d="M 48.994461 39.335896 
L 64.994461 39.335896 
" style="fill:none;stroke:#e36f47;stroke-linecap:round;stroke-width:1.5;"/>
    </g>
    <g id="line2d_44"/>
    <g id="text_15">
     <!-- JLContext i7-6700 CPU @ 3.40GHz 1 threads -->
     <g transform="translate(71.394461 42.135896)scale(0.08 -0.08)">
      <use xlink:href="#DejaVuSans-4a"/>
      <use x="29.492188" xlink:href="#DejaVuSans-4c"/>
      <use x="85.205078" xlink:href="#DejaVuSans-43"/>
      <use x="155.029297" xlink:href="#DejaVuSans-6f"/>
      <use x="216.210938" xlink:href="#DejaVuSans-6e"/>
      <use x="279.589844" xlink:href="#DejaVuSans-74"/>
      <use x="318.798828" xlink:href="#DejaVuSans-65"/>
      <use x="380.306641" xlink:href="#DejaVuSans-78"/>
      <use x="439.486328" xlink:href="#DejaVuSans-74"/>
      <use x="478.695312" xlink:href="#DejaVuSans-20"/>
      <use x="510.482422" xlink:href="#DejaVuSans-69"/>
      <use x="538.265625" xlink:href="#DejaVuSans-37"/>
      <use x="601.888672" xlink:href="#DejaVuSans-2d"/>
      <use x="637.972656" xlink:href="#DejaVuSans-36"/>
      <use x="701.595703" xlink:href="#DejaVuSans-37"/>
      <use x="765.21875" xlink:href="#DejaVuSans-30"/>
      <use x="828.841797" xlink:href="#DejaVuSans-30"/>
      <use x="892.464844" xlink:href="#DejaVuSans-20"/>
      <use x="924.251953" xlink:href="#DejaVuSans-43"/>
      <use x="994.076172" xlink:href="#DejaVuSans-50"/>
      <use x="1054.378906" xlink:href="#DejaVuSans-55"/>
      <use x="1127.572266" xlink:href="#DejaVuSans-20"/>
      <use x="1159.359375" xlink:href="#DejaVuSans-40"/>
      <use x="1259.359375" xlink:href="#DejaVuSans-20"/>
      <use x="1291.146484" xlink:href="#DejaVuSans-33"/>
      <use x="1354.769531" xlink:href="#DejaVuSans-2e"/>
      <use x="1386.556641" xlink:href="#DejaVuSans-34"/>
      <use x="1450.179688" xlink:href="#DejaVuSans-30"/>
      <use x="1513.802734" xlink:href="#DejaVuSans-47"/>
      <use x="1591.292969" xlink:href="#DejaVuSans-48"/>
      <use x="1666.488281" xlink:href="#DejaVuSans-7a"/>
      <use x="1718.978516" xlink:href="#DejaVuSans-20"/>
      <use x="1750.765625" xlink:href="#DejaVuSans-31"/>
      <use x="1814.388672" xlink:href="#DejaVuSans-20"/>
      <use x="1846.175781" xlink:href="#DejaVuSans-74"/>
      <use x="1885.384766" xlink:href="#DejaVuSans-68"/>
      <use x="1948.763672" xlink:href="#DejaVuSans-72"/>
      <use x="1989.845703" xlink:href="#DejaVuSans-65"/>
      <use x="2051.369141" xlink:href="#DejaVuSans-61"/>
      <use x="2112.648438" xlink:href="#DejaVuSans-64"/>
      <use x="2176.125" xlink:href="#DejaVuSans-73"/>
     </g>
    </g>
    <g id="line2d_45">
     <path d="M 48.994461 51.078396 
L 64.994461 51.078396 
" style="fill:none;stroke:#3ea44e;stroke-linecap:round;stroke-width:1.5;"/>
    </g>
    <g id="line2d_46"/>
    <g id="text_16">
     <!-- CLContext: i7-6700 CPU @ 3.40GHz -->
     <defs>
      <path d="M 11.71875 12.40625 
L 22.015625 12.40625 
L 22.015625 0 
L 11.71875 0 
z
M 11.71875 51.703125 
L 22.015625 51.703125 
L 22.015625 39.3125 
L 11.71875 39.3125 
z
" id="DejaVuSans-3a"/>
     </defs>
     <g transform="translate(71.394461 53.878396)scale(0.08 -0.08)">
      <use xlink:href="#DejaVuSans-43"/>
      <use x="69.824219" xlink:href="#DejaVuSans-4c"/>
      <use x="125.537109" xlink:href="#DejaVuSans-43"/>
      <use x="195.361328" xlink:href="#DejaVuSans-6f"/>
      <use x="256.542969" xlink:href="#DejaVuSans-6e"/>
      <use x="319.921875" xlink:href="#DejaVuSans-74"/>
      <use x="359.130859" xlink:href="#DejaVuSans-65"/>
      <use x="420.638672" xlink:href="#DejaVuSans-78"/>
      <use x="479.818359" xlink:href="#DejaVuSans-74"/>
      <use x="519.027344" xlink:href="#DejaVuSans-3a"/>
      <use x="552.71875" xlink:href="#DejaVuSans-20"/>
      <use x="584.505859" xlink:href="#DejaVuSans-69"/>
      <use x="612.289062" xlink:href="#DejaVuSans-37"/>
      <use x="675.912109" xlink:href="#DejaVuSans-2d"/>
      <use x="711.996094" xlink:href="#DejaVuSans-36"/>
      <use x="775.619141" xlink:href="#DejaVuSans-37"/>
      <use x="839.242188" xlink:href="#DejaVuSans-30"/>
      <use x="902.865234" xlink:href="#DejaVuSans-30"/>
      <use x="966.488281" xlink:href="#DejaVuSans-20"/>
      <use x="998.275391" xlink:href="#DejaVuSans-43"/>
      <use x="1068.099609" xlink:href="#DejaVuSans-50"/>
      <use x="1128.402344" xlink:href="#DejaVuSans-55"/>
      <use x="1201.595703" xlink:href="#DejaVuSans-20"/>
      <use x="1233.382812" xlink:href="#DejaVuSans-40"/>
      <use x="1333.382812" xlink:href="#DejaVuSans-20"/>
      <use x="1365.169922" xlink:href="#DejaVuSans-33"/>
      <use x="1428.792969" xlink:href="#DejaVuSans-2e"/>
      <use x="1460.580078" xlink:href="#DejaVuSans-34"/>
      <use x="1524.203125" xlink:href="#DejaVuSans-30"/>
      <use x="1587.826172" xlink:href="#DejaVuSans-47"/>
      <use x="1665.316406" xlink:href="#DejaVuSans-48"/>
      <use x="1740.511719" xlink:href="#DejaVuSans-7a"/>
     </g>
    </g>
    <g id="line2d_47">
     <path d="M 48.994461 62.820896 
L 64.994461 62.820896 
" style="fill:none;stroke:#c371d2;stroke-linecap:round;stroke-width:1.5;"/>
    </g>
    <g id="line2d_48"/>
    <g id="text_17">
     <!-- JLContext i7-6700 CPU @ 3.40GHz 8 threads -->
     <defs>
      <path d="M 31.78125 34.625 
Q 24.75 34.625 20.71875 30.859375 
Q 16.703125 27.09375 16.703125 20.515625 
Q 16.703125 13.921875 20.71875 10.15625 
Q 24.75 6.390625 31.78125 6.390625 
Q 38.8125 6.390625 42.859375 10.171875 
Q 46.921875 13.96875 46.921875 20.515625 
Q 46.921875 27.09375 42.890625 30.859375 
Q 38.875 34.625 31.78125 34.625 
M 21.921875 38.8125 
Q 15.578125 40.375 12.03125 44.71875 
Q 8.5 49.078125 8.5 55.328125 
Q 8.5 64.0625 14.71875 69.140625 
Q 20.953125 74.21875 31.78125 74.21875 
Q 42.671875 74.21875 48.875 69.140625 
Q 55.078125 64.0625 55.078125 55.328125 
Q 55.078125 49.078125 51.53125 44.71875 
Q 48 40.375 41.703125 38.8125 
Q 48.828125 37.15625 52.796875 32.3125 
Q 56.78125 27.484375 56.78125 20.515625 
Q 56.78125 9.90625 50.3125 4.234375 
Q 43.84375 -1.421875 31.78125 -1.421875 
Q 19.734375 -1.421875 13.25 4.234375 
Q 6.78125 9.90625 6.78125 20.515625 
Q 6.78125 27.484375 10.78125 32.3125 
Q 14.796875 37.15625 21.921875 38.8125 
M 18.3125 54.390625 
Q 18.3125 48.734375 21.84375 45.5625 
Q 25.390625 42.390625 31.78125 42.390625 
Q 38.140625 42.390625 41.71875 45.5625 
Q 45.3125 48.734375 45.3125 54.390625 
Q 45.3125 60.0625 41.71875 63.234375 
Q 38.140625 66.40625 31.78125 66.40625 
Q 25.390625 66.40625 21.84375 63.234375 
Q 18.3125 60.0625 18.3125 54.390625 
" id="DejaVuSans-38"/>
     </defs>
     <g transform="translate(71.394461 65.620896)scale(0.08 -0.08)">
      <use xlink:href="#DejaVuSans-4a"/>
      <use x="29.492188" xlink:href="#DejaVuSans-4c"/>
      <use x="85.205078" xlink:href="#DejaVuSans-43"/>
      <use x="155.029297" xlink:href="#DejaVuSans-6f"/>
      <use x="216.210938" xlink:href="#DejaVuSans-6e"/>
      <use x="279.589844" xlink:href="#DejaVuSans-74"/>
      <use x="318.798828" xlink:href="#DejaVuSans-65"/>
      <use x="380.306641" xlink:href="#DejaVuSans-78"/>
      <use x="439.486328" xlink:href="#DejaVuSans-74"/>
      <use x="478.695312" xlink:href="#DejaVuSans-20"/>
      <use x="510.482422" xlink:href="#DejaVuSans-69"/>
      <use x="538.265625" xlink:href="#DejaVuSans-37"/>
      <use x="601.888672" xlink:href="#DejaVuSans-2d"/>
      <use x="637.972656" xlink:href="#DejaVuSans-36"/>
      <use x="701.595703" xlink:href="#DejaVuSans-37"/>
      <use x="765.21875" xlink:href="#DejaVuSans-30"/>
      <use x="828.841797" xlink:href="#DejaVuSans-30"/>
      <use x="892.464844" xlink:href="#DejaVuSans-20"/>
      <use x="924.251953" xlink:href="#DejaVuSans-43"/>
      <use x="994.076172" xlink:href="#DejaVuSans-50"/>
      <use x="1054.378906" xlink:href="#DejaVuSans-55"/>
      <use x="1127.572266" xlink:href="#DejaVuSans-20"/>
      <use x="1159.359375" xlink:href="#DejaVuSans-40"/>
      <use x="1259.359375" xlink:href="#DejaVuSans-20"/>
      <use x="1291.146484" xlink:href="#DejaVuSans-33"/>
      <use x="1354.769531" xlink:href="#DejaVuSans-2e"/>
      <use x="1386.556641" xlink:href="#DejaVuSans-34"/>
      <use x="1450.179688" xlink:href="#DejaVuSans-30"/>
      <use x="1513.802734" xlink:href="#DejaVuSans-47"/>
      <use x="1591.292969" xlink:href="#DejaVuSans-48"/>
      <use x="1666.488281" xlink:href="#DejaVuSans-7a"/>
      <use x="1718.978516" xlink:href="#DejaVuSans-20"/>
      <use x="1750.765625" xlink:href="#DejaVuSans-38"/>
      <use x="1814.388672" xlink:href="#DejaVuSans-20"/>
      <use x="1846.175781" xlink:href="#DejaVuSans-74"/>
      <use x="1885.384766" xlink:href="#DejaVuSans-68"/>
      <use x="1948.763672" xlink:href="#DejaVuSans-72"/>
      <use x="1989.845703" xlink:href="#DejaVuSans-65"/>
      <use x="2051.369141" xlink:href="#DejaVuSans-61"/>
      <use x="2112.648438" xlink:href="#DejaVuSans-64"/>
      <use x="2176.125" xlink:href="#DejaVuSans-73"/>
     </g>
    </g>
    <g id="line2d_49">
     <path d="M 48.994461 74.563396 
L 64.994461 74.563396 
" style="fill:none;stroke:#ac8e18;stroke-linecap:round;stroke-width:1.5;"/>
    </g>
    <g id="line2d_50"/>
    <g id="text_18">
     <!-- CLContext: GeForce GTX 950 -->
     <defs>
      <path d="M 9.8125 72.90625 
L 51.703125 72.90625 
L 51.703125 64.59375 
L 19.671875 64.59375 
L 19.671875 43.109375 
L 48.578125 43.109375 
L 48.578125 34.8125 
L 19.671875 34.8125 
L 19.671875 0 
L 9.8125 0 
z
" id="DejaVuSans-46"/>
      <path d="M 6.296875 72.90625 
L 16.890625 72.90625 
L 35.015625 45.796875 
L 53.21875 72.90625 
L 63.8125 72.90625 
L 40.375 37.890625 
L 65.375 0 
L 54.78125 0 
L 34.28125 31 
L 13.625 0 
L 2.984375 0 
L 29 38.921875 
z
" id="DejaVuSans-58"/>
      <path d="M 10.984375 1.515625 
L 10.984375 10.5 
Q 14.703125 8.734375 18.5 7.8125 
Q 22.3125 6.890625 25.984375 6.890625 
Q 35.75 6.890625 40.890625 13.453125 
Q 46.046875 20.015625 46.78125 33.40625 
Q 43.953125 29.203125 39.59375 26.953125 
Q 35.25 24.703125 29.984375 24.703125 
Q 19.046875 24.703125 12.671875 31.3125 
Q 6.296875 37.9375 6.296875 49.421875 
Q 6.296875 60.640625 12.9375 67.421875 
Q 19.578125 74.21875 30.609375 74.21875 
Q 43.265625 74.21875 49.921875 64.515625 
Q 56.59375 54.828125 56.59375 36.375 
Q 56.59375 19.140625 48.40625 8.859375 
Q 40.234375 -1.421875 26.421875 -1.421875 
Q 22.703125 -1.421875 18.890625 -0.6875 
Q 15.09375 0.046875 10.984375 1.515625 
M 30.609375 32.421875 
Q 37.25 32.421875 41.125 36.953125 
Q 45.015625 41.5 45.015625 49.421875 
Q 45.015625 57.28125 41.125 61.84375 
Q 37.25 66.40625 30.609375 66.40625 
Q 23.96875 66.40625 20.09375 61.84375 
Q 16.21875 57.28125 16.21875 49.421875 
Q 16.21875 41.5 20.09375 36.953125 
Q 23.96875 32.421875 30.609375 32.421875 
" id="DejaVuSans-39"/>
     </defs>
     <g transform="translate(71.394461 77.363396)scale(0.08 -0.08)">
      <use xlink:href="#DejaVuSans-43"/>
      <use x="69.824219" xlink:href="#DejaVuSans-4c"/>
      <use x="125.537109" xlink:href="#DejaVuSans-43"/>
      <use x="195.361328" xlink:href="#DejaVuSans-6f"/>
      <use x="256.542969" xlink:href="#DejaVuSans-6e"/>
      <use x="319.921875" xlink:href="#DejaVuSans-74"/>
      <use x="359.130859" xlink:href="#DejaVuSans-65"/>
      <use x="420.638672" xlink:href="#DejaVuSans-78"/>
      <use x="479.818359" xlink:href="#DejaVuSans-74"/>
      <use x="519.027344" xlink:href="#DejaVuSans-3a"/>
      <use x="552.71875" xlink:href="#DejaVuSans-20"/>
      <use x="584.505859" xlink:href="#DejaVuSans-47"/>
      <use x="661.996094" xlink:href="#DejaVuSans-65"/>
      <use x="723.519531" xlink:href="#DejaVuSans-46"/>
      <use x="780.992188" xlink:href="#DejaVuSans-6f"/>
      <use x="842.173828" xlink:href="#DejaVuSans-72"/>
      <use x="883.255859" xlink:href="#DejaVuSans-63"/>
      <use x="938.236328" xlink:href="#DejaVuSans-65"/>
      <use x="999.759766" xlink:href="#DejaVuSans-20"/>
      <use x="1031.546875" xlink:href="#DejaVuSans-47"/>
      <use x="1108.990234" xlink:href="#DejaVuSans-54"/>
      <use x="1170.074219" xlink:href="#DejaVuSans-58"/>
      <use x="1238.580078" xlink:href="#DejaVuSans-20"/>
      <use x="1270.367188" xlink:href="#DejaVuSans-39"/>
      <use x="1333.990234" xlink:href="#DejaVuSans-35"/>
      <use x="1397.613281" xlink:href="#DejaVuSans-30"/>
     </g>
    </g>
    <g id="line2d_51">
     <path d="M 48.994461 86.305896 
L 64.994461 86.305896 
" style="fill:none;stroke:#00aaae;stroke-linecap:round;stroke-width:1.5;"/>
    </g>
    <g id="line2d_52"/>
    <g id="text_19">
     <!-- CUContext: GeForce GTX 950 -->
     <g transform="translate(71.394461 89.105896)scale(0.08 -0.08)">
      <use xlink:href="#DejaVuSans-43"/>
      <use x="69.824219" xlink:href="#DejaVuSans-55"/>
      <use x="143.017578" xlink:href="#DejaVuSans-43"/>
      <use x="212.841797" xlink:href="#DejaVuSans-6f"/>
      <use x="274.023438" xlink:href="#DejaVuSans-6e"/>
      <use x="337.402344" xlink:href="#DejaVuSans-74"/>
      <use x="376.611328" xlink:href="#DejaVuSans-65"/>
      <use x="438.119141" xlink:href="#DejaVuSans-78"/>
      <use x="497.298828" xlink:href="#DejaVuSans-74"/>
      <use x="536.507812" xlink:href="#DejaVuSans-3a"/>
      <use x="570.199219" xlink:href="#DejaVuSans-20"/>
      <use x="601.986328" xlink:href="#DejaVuSans-47"/>
      <use x="679.476562" xlink:href="#DejaVuSans-65"/>
      <use x="741" xlink:href="#DejaVuSans-46"/>
      <use x="798.472656" xlink:href="#DejaVuSans-6f"/>
      <use x="859.654297" xlink:href="#DejaVuSans-72"/>
      <use x="900.736328" xlink:href="#DejaVuSans-63"/>
      <use x="955.716797" xlink:href="#DejaVuSans-65"/>
      <use x="1017.240234" xlink:href="#DejaVuSans-20"/>
      <use x="1049.027344" xlink:href="#DejaVuSans-47"/>
      <use x="1126.470703" xlink:href="#DejaVuSans-54"/>
      <use x="1187.554688" xlink:href="#DejaVuSans-58"/>
      <use x="1256.060547" xlink:href="#DejaVuSans-20"/>
      <use x="1287.847656" xlink:href="#DejaVuSans-39"/>
      <use x="1351.470703" xlink:href="#DejaVuSans-35"/>
      <use x="1415.09375" xlink:href="#DejaVuSans-30"/>
     </g>
    </g>
    <g id="line2d_53">
     <path d="M 48.994461 98.048396 
L 64.994461 98.048396 
" style="fill:none;stroke:#ed5e93;stroke-linecap:round;stroke-width:1.5;"/>
    </g>
    <g id="line2d_54"/>
    <g id="text_20">
     <!-- CLContext: FirePro w9100 -->
     <defs>
      <path d="M 4.203125 54.6875 
L 13.1875 54.6875 
L 24.421875 12.015625 
L 35.59375 54.6875 
L 46.1875 54.6875 
L 57.421875 12.015625 
L 68.609375 54.6875 
L 77.59375 54.6875 
L 63.28125 0 
L 52.6875 0 
L 40.921875 44.828125 
L 29.109375 0 
L 18.5 0 
z
" id="DejaVuSans-77"/>
     </defs>
     <g transform="translate(71.394461 100.848396)scale(0.08 -0.08)">
      <use xlink:href="#DejaVuSans-43"/>
      <use x="69.824219" xlink:href="#DejaVuSans-4c"/>
      <use x="125.537109" xlink:href="#DejaVuSans-43"/>
      <use x="195.361328" xlink:href="#DejaVuSans-6f"/>
      <use x="256.542969" xlink:href="#DejaVuSans-6e"/>
      <use x="319.921875" xlink:href="#DejaVuSans-74"/>
      <use x="359.130859" xlink:href="#DejaVuSans-65"/>
      <use x="420.638672" xlink:href="#DejaVuSans-78"/>
      <use x="479.818359" xlink:href="#DejaVuSans-74"/>
      <use x="519.027344" xlink:href="#DejaVuSans-3a"/>
      <use x="552.71875" xlink:href="#DejaVuSans-20"/>
      <use x="584.505859" xlink:href="#DejaVuSans-46"/>
      <use x="641.916016" xlink:href="#DejaVuSans-69"/>
      <use x="669.699219" xlink:href="#DejaVuSans-72"/>
      <use x="710.78125" xlink:href="#DejaVuSans-65"/>
      <use x="772.304688" xlink:href="#DejaVuSans-50"/>
      <use x="832.591797" xlink:href="#DejaVuSans-72"/>
      <use x="873.673828" xlink:href="#DejaVuSans-6f"/>
      <use x="934.855469" xlink:href="#DejaVuSans-20"/>
      <use x="966.642578" xlink:href="#DejaVuSans-77"/>
      <use x="1048.429688" xlink:href="#DejaVuSans-39"/>
      <use x="1112.052734" xlink:href="#DejaVuSans-31"/>
      <use x="1175.675781" xlink:href="#DejaVuSans-30"/>
      <use x="1239.298828" xlink:href="#DejaVuSans-30"/>
     </g>
    </g>
   </g>
  </g>
 </g>
 <defs>
  <clipPath id="pf2bfd4522c">
   <rect height="236.818709" width="382.506888" x="41.794461" y="17.114646"/>
  </clipPath>
 </defs>
</svg>
